<svg width="32" height="32" viewBox="0 0 32 32" fill="none" xmlns="http://www.w3.org/2000/svg">
<rect width="32" height="32" rx="2.61224" fill="#171817"/>
<path d="M26.2771 16.6802C26.2764 16.681 26.2754 16.6814 26.2743 16.6814H25.8752C25.341 16.6814 24.9079 16.2484 24.9079 15.7141V14.0438C24.9079 13.9056 24.8564 13.7744 24.7627 13.6737L22.2445 10.9751C22.1414 10.865 21.9986 10.8018 21.8463 10.8018H6.32727C6.17735 10.8018 6.03211 10.865 5.92904 10.9751L3.41086 13.6713C3.31716 13.772 3.26562 13.9056 3.26562 14.0414V17.8925C3.26562 18.0307 3.31716 18.1619 3.41086 18.2626L5.92904 20.9588C6.03211 21.0689 6.175 21.1322 6.32727 21.1322H29.9701C30.2234 21.1282 30.2416 20.8136 30.0728 20.6247C29.1767 19.6215 26.5352 16.6882 26.2795 16.6791C26.2784 16.6791 26.2779 16.6795 26.2771 16.6802ZM20.4584 16.1356C20.4577 16.1356 20.4572 16.1361 20.4572 16.1368C20.4566 16.4361 20.2132 16.6791 19.9137 16.6791H8.25982C8.1099 16.6791 7.96467 16.6158 7.8616 16.5057C7.7679 16.405 7.71636 16.2715 7.71636 16.1356V15.7983C7.71636 15.6601 7.7679 15.5289 7.86394 15.4282C7.96701 15.3181 8.1099 15.2548 8.26217 15.2548H19.9044C20.0496 15.2548 20.1878 15.3111 20.2885 15.4141L20.3002 15.4258C20.4033 15.5289 20.4595 15.6671 20.4595 15.81V16.1344C20.4595 16.1351 20.459 16.1356 20.4584 16.1356Z" fill="#16E3C1"/>
</svg>
